# xmcd CD database file
#
# Track frame offsets:
#	150
#	37472
#	69571
#	108215
#	131956
#	157049
#	186338
#
# Disc length: 3090 seconds
#
# Revision: 0
# Processed by: cddbd v1.5.1PL0 Copyright (c) Steve Scherf et al.
# Submitted via: CDex 1.51
#
DISCID=6b0c1007
DTITLE=Ornette Coleman and Prime Time Band - 1987 Stadtgarten Köln
DYEAR=1900
DGENRE=Jazz
TTITLE0=Ornette Coleman and Prime Time B - In All Languages
TTITLE1=Ornette Coleman and Prime Time - Song X
TTITLE2=Ornette Coleman and Prime Time - Story Tellers
TTITLE3=Ornette Coleman and Prime Time - Latin Genetics
TTITLE4=Ornette Coleman and Prime Time - Mothers Of The Veil
TTITLE5=Ornette Coleman and Prime Time - Dancing In Your Head
TTITLE6=Ornette Coleman and Prime Time - Space Church
EXTD=
EXTT0=
EXTT1=
EXTT2=
EXTT3=
EXTT4=
EXTT5=
EXTT6=
PLAYORDER=
